<svg width="52" height="52" viewBox="0 0 52 52" fill="none" xmlns="http://www.w3.org/2000/svg">
<path fill-rule="evenodd" clip-rule="evenodd" d="M19.4999 45.5C19.4999 44.9254 19.7282 44.3743 20.1345 43.9679C20.5409 43.5616 21.0919 43.3333 21.6666 43.3333H30.3333C30.9079 43.3333 31.459 43.5616 31.8653 43.9679C32.2716 44.3743 32.4999 44.9254 32.4999 45.5C32.4999 46.0746 32.2716 46.6257 31.8653 47.0321C31.459 47.4384 30.9079 47.6667 30.3333 47.6667H21.6666C21.0919 47.6667 20.5409 47.4384 20.1345 47.0321C19.7282 46.6257 19.4999 46.0746 19.4999 45.5ZM19.4999 33.4208C20.0746 33.4208 20.6257 33.6491 21.032 34.0554C21.4383 34.4618 21.6666 35.0129 21.6666 35.5875V36.4498C21.6666 37.2602 22.3231 37.9167 23.1334 37.9167H28.8664C29.2554 37.9167 29.6285 37.7621 29.9036 37.487C30.1787 37.212 30.3333 36.8389 30.3333 36.4498V35.75C30.3333 35.1754 30.5615 34.6243 30.9679 34.2179C31.3742 33.8116 31.9253 33.5833 32.4999 33.5833C33.0746 33.5833 33.6257 33.8116 34.032 34.2179C34.4383 34.6243 34.6666 35.1754 34.6666 35.75V36.4498C34.6669 37.2116 34.517 37.966 34.2257 38.6698C33.9343 39.3736 33.507 40.0132 32.9684 40.5518C32.4297 41.0905 31.7902 41.5177 31.0864 41.8091C30.3825 42.1005 29.6282 42.2503 28.8664 42.25H23.1334C22.3717 42.2503 21.6173 42.1005 20.9135 41.8091C20.2096 41.5177 19.5701 41.0905 19.0314 40.5518C18.4928 40.0132 18.0656 39.3736 17.7742 38.6698C17.4828 37.966 17.333 37.2116 17.3333 36.4498V35.5875C17.3333 35.0129 17.5615 34.4618 17.9679 34.0554C18.3742 33.6491 18.9253 33.4208 19.4999 33.4208Z" fill="url(#paint0_linear_30_312)"/>
<path d="M30.8273 36.4997C31.1241 37.4097 32.1056 37.9167 32.9831 37.531C36.6309 35.9255 39.614 33.112 41.43 29.5642C43.246 26.0165 43.7839 21.9513 42.9532 18.0534C42.1225 14.1554 39.9739 10.6628 36.8692 8.16376C33.7645 5.66471 29.8935 4.31192 25.908 4.3332C21.9226 4.35448 18.0662 5.74854 14.9884 8.2806C11.9106 10.8127 9.79941 14.328 9.01036 18.2346C8.22131 22.1412 8.80262 26.2004 10.6564 29.7286C12.5102 33.2567 15.5232 36.0382 19.1879 37.6047C20.0676 37.9817 21.0448 37.466 21.3329 36.5517L21.5214 35.9493C21.8074 35.0372 21.2918 34.073 20.4251 33.67C17.6967 32.4028 15.4813 30.244 14.144 27.5492C12.8067 24.8544 12.4273 21.7845 13.0683 18.8452C13.7093 15.906 15.3324 13.2727 17.6702 11.3794C20.008 9.48607 22.921 8.44559 25.9293 8.42941C28.9376 8.41323 31.8617 9.42231 34.2197 11.2904C36.5778 13.1585 38.2291 15.7741 38.9017 18.7063C39.5742 21.6385 39.2279 24.7123 37.9196 27.4213C36.6114 30.1303 34.4194 32.3129 31.7048 33.6093C30.8403 34.021 30.3354 34.9895 30.6323 35.9017L30.8273 36.4997Z" fill="url(#paint1_linear_30_312)"/>
<g clip-path="url(#clip0_30_312)">
<path d="M31.3335 19.098C31.1907 19.0647 31.046 19.0409 30.9001 19.0267C30.6996 18.0108 30.1883 17.0824 29.4369 16.3699C28.6856 15.6574 27.7314 15.196 26.7064 15.0495C25.6813 14.9031 24.6361 15.0789 23.7153 15.5525C22.7946 16.0262 22.0437 16.7743 21.5668 17.6933C21.2594 17.7305 20.9574 17.8032 20.6668 17.91C19.8874 18.1836 19.2123 18.6924 18.7347 19.3663C18.257 20.0401 18.0005 20.8457 18.0005 21.6717C18.0005 22.4976 18.257 23.3032 18.7347 23.9771C19.2123 24.6509 19.8874 25.1598 20.6668 25.4333V23.964C20.2616 23.732 19.9248 23.3971 19.6907 22.9932C19.4565 22.5892 19.3331 22.1306 19.3331 21.6637C19.3331 21.1967 19.4565 20.7381 19.6907 20.3342C19.9248 19.9302 20.2616 19.5953 20.6668 19.3633C20.9851 19.1763 21.3397 19.0593 21.7068 19.02L22.4201 18.9467L22.7535 18.3133C23.1018 17.6386 23.6514 17.0889 24.3262 16.7406C25.001 16.3924 25.7675 16.2627 26.5193 16.3697C27.2711 16.4767 27.971 16.815 28.5218 17.3377C29.0727 17.8603 29.4472 18.5415 29.5935 19.2867L29.7935 20.2867L30.8135 20.36C30.9911 20.3747 31.166 20.413 31.3335 20.474C31.7225 20.6078 32.0601 20.8597 32.2991 21.1946C32.5381 21.5294 32.6665 21.9306 32.6665 22.342C32.6665 22.7534 32.5381 23.1546 32.2991 23.4894C32.0601 23.8243 31.7225 24.0762 31.3335 24.21V25.5993C32.0852 25.4494 32.7618 25.0436 33.248 24.4509C33.7342 23.8582 33.9999 23.1153 33.9999 22.3487C33.9999 21.5821 33.7342 20.8392 33.248 20.2465C32.7618 19.6538 32.0852 19.2479 31.3335 19.098Z" fill="url(#paint2_linear_30_312)"/>
<path d="M26 22.3333C23.4547 22.3333 22 22.8387 22 23.778V29.5553C22 30.4947 24.058 31 26 31C27.942 31 30 30.4947 30 29.5553V23.778C30 22.8387 28.5453 22.3333 26 22.3333ZM26 23C27.8073 23 29.2733 23.54 29.2733 24.1387C29.2733 24.7373 27.8067 25.222 26 25.222C24.1933 25.222 22.7267 24.7373 22.7267 24.1387C22.7267 23.54 24.1933 23 26 23ZM22.7267 28.2827V27.5207C23.7643 27.9447 24.8796 28.146 26 28.1113C27.1204 28.146 28.2357 27.9447 29.2733 27.5207V28.3067C28.228 28.6979 27.1153 28.877 26 28.8333C24.8834 28.8658 23.7712 28.6787 22.7267 28.2827Z" fill="url(#paint3_linear_30_312)"/>
</g>
<defs>
<linearGradient id="paint0_linear_30_312" x1="25.9999" y1="33.4208" x2="25.9999" y2="47.6667" gradientUnits="userSpaceOnUse">
<stop stop-color="#219DF4"/>
<stop offset="1" stop-color="#135B8E"/>
</linearGradient>
<linearGradient id="paint1_linear_30_312" x1="26.0006" y1="4.33295" x2="26.0006" y2="37.7292" gradientUnits="userSpaceOnUse">
<stop stop-color="#219DF4"/>
<stop offset="1" stop-color="#135B8E"/>
</linearGradient>
<linearGradient id="paint2_linear_30_312" x1="26.0002" y1="14.9993" x2="26.0002" y2="25.5993" gradientUnits="userSpaceOnUse">
<stop stop-color="#219DF4"/>
<stop offset="1" stop-color="#135B8E"/>
</linearGradient>
<linearGradient id="paint3_linear_30_312" x1="26" y1="22.3333" x2="26" y2="31" gradientUnits="userSpaceOnUse">
<stop stop-color="#219DF4"/>
<stop offset="1" stop-color="#135B8E"/>
</linearGradient>
<clipPath id="clip0_30_312">
<rect width="16" height="16" fill="white" transform="translate(18 15)"/>
</clipPath>
</defs>
</svg>
